<svg xmlns="http://www.w3.org/2000/svg" xmlns:xlink="http://www.w3.org/1999/xlink" aria-hidden="true" role="img" class="iconify iconify--logos" width="35.93" height="32" preserveAspectRatio="xMidYMid meet" viewBox="0 0 256 228"><path fill="#00D8FF" d="M210.483 73.824a171.49 171.49 0 0 0-8.24-2.597c.465-1.9.893-3.777 1.273-5.621c6.238-30.281 2.16-54.676-11.769-62.708c-13.355-7.7-35.196.329-57.254 19.526a171.23 171.23 0 0 0-6.375 5.848a155.866 155.866 0 0 0-4.241-3.917C100.759 3.829 77.587-4.822 63.673 3.233C50.33 10.957 46.379 33.89 51.995 62.588a170.974 170.974 0 0 0 1.892 8.48c-3.28.932-6.445 1.924-9.474 2.98C17.309 83.498 0 98.307 0 113.668c0 15.865 18.582 31.778 46.812 41.427a145.52 145.52 0 0 0 6.921 2.165a167.467 167.467 0 0 0-2.01 9.138c-5.354 28.2-1.173 50.591 12.134 58.266c13.744 7.926 36.812-.22 59.273-19.855a145.567 145.567 0 0 0 5.342-4.923a168.064 168.064 0 0 0 6.92 6.314c21.758 18.722 43.246 26.282 56.54 18.586c13.731-7.949 18.194-32.003 12.4-61.268a145.016 145.016 0 0 0-1.535-6.842c1.62-.48 3.21-.974 4.76-1.488c29.348-9.723 48.443-25.443 48.443-41.52c0-15.417-17.868-30.326-45.517-39.844Zm-6.365 70.984c-1.4.463-2.836.91-4.3 1.345c-3.24-10.257-7.612-21.163-12.963-32.432c5.106-11 9.31-21.767 12.459-31.957c2.619.758 5.16 1.557 7.61 2.4c23.69 8.156 38.14 20.213 38.14 29.504c0 9.896-15.606 22.743-40.946 31.14Zm-10.514 20.834c2.562 12.94 2.927 24.64 1.23 33.787c-1.524 8.219-4.59 13.698-8.382 15.893c-8.067 4.67-25.32-1.4-43.927-17.412a156.839 156.839 0 0 1-6.437-5.87c7.214-7.889 14.423-17.06 21.459-27.246c12.376-1.098 24.068-2.894 34.667-5.345a134.17 134.17 0 0 1 1.39 6.193ZM87.276 214.515c-7.882 1.966-14.16 1.268-17.94-1.853c-8.067-6.671-6.846-22.155-1.085-43.848a156.17 156.17 0 0 1 1.869-8.499c10.559 2.32 22.165 3.988 34.497 4.994c7.084 9.967 14.501 19.128 21.976 27.15a134.741 134.741 0 0 1-4.914 4.549c-9.933 8.682-19.886 14.842-34.403 17.507Zm-2.56-82.321c-12.483-1.034-24.083-2.773-34.493-5.199a132.417 132.417 0 0 1-1.535-6.845c-5.402-28.094-1.286-50.591 12.18-58.269c13.744-7.926 35.184.22 57.259 19.855a154.976 154.976 0 0 1 4.241 3.916c-7.214 7.888-14.423 17.06-21.459 27.246c-12.376 1.098-24.068 2.894-34.667 5.345a145.378 145.378 0 0 1-1.526 6.151Zm7.734-60.999c-8.067-4.67-25.32 1.4-43.927 17.412a156.839 156.839 0 0 1-6.437 5.87c7.214-7.889 14.423-17.06 21.459-27.246c10.559-2.32 22.165-3.988 34.497-4.994c7.084-9.967 14.501-19.128 21.976-27.15a134.741 134.741 0 0 1 4.914-4.549c9.933-8.682 19.886-14.842 34.403-17.507c7.882-1.966 14.16-1.268 17.94 1.853c8.067 6.671 6.846 22.155 1.085 43.848a156.17 156.17 0 0 1-1.869 8.499c-10.559-2.32-22.165-3.988-34.497-4.994c-7.084-9.967-14.501-19.128-21.976-27.15a134.741 134.741 0 0 1-4.914-4.549c-9.933-8.682-19.886-14.842-34.403-17.507Zm113.464 50.135c1.529 7.721 2.313 15.585 2.313 23.459c0 7.659-.756 15.187-2.24 22.461c-9.433 2.04-19.762 3.528-30.718 4.418c-5.403-16.813-13.234-33.545-22.839-49.311c9.262-15.516 16.814-31.963 22.1-48.493c11.166.889 21.688 2.387 31.287 4.415c1.482 7.258 2.246 14.783 2.246 22.439c0 8.891-.884 17.521-2.149 25.716Zm-58.771 51.683c-7.296 12.11-15.24 22.588-23.404 31.004a156.33 156.33 0 0 1-5.342 4.923c-21.758 18.722-43.246 26.282-56.54 18.586c-13.731-7.949-18.194-32.003-12.4-61.268a145.016 145.016 0 0 0 1.535-6.842c10.559 2.32 22.165 3.988 34.497 4.994c8.217 11.592 16.848 22.174 25.653 31.374a156.17 156.17 0 0 0 6.437 5.87c9.933 8.682 19.886 14.842 34.403 17.507c7.882 1.966 14.16 1.268 17.94-1.853c8.067-6.671 6.846-22.155 1.085-43.848a156.17 156.17 0 0 1-1.869-8.499c-10.559-2.32-22.165-3.988-34.497-4.994c-8.217-11.592-16.848-22.174-25.653-31.374a156.17 156.17 0 0 0-6.437-5.87c-9.933-8.682-19.886-14.842-34.403-17.507c-7.882-1.966-14.16-1.268-17.94 1.853c-8.067 6.671-6.846 22.155 1.085 43.848a145.016 145.016 0 0 0 1.535 6.842c10.559-2.32 22.165-3.988 34.497-4.994c8.217-11.592 16.848-22.174 25.653-31.374a156.17 156.17 0 0 0 6.437-5.87c21.758-18.722 43.246-26.282 56.54-18.586c13.731 7.949 18.194 32.003 12.4 61.268a145.016 145.016 0 0 1-1.535 6.842c-10.559-2.32-22.165-3.988-34.497-4.994c-8.217-11.592-16.848-22.174-25.653-31.374Zm-31.341-84.87c5.403 16.813 13.234 33.545 22.839 49.311c-9.262 15.516-16.814 31.963-22.1 48.493c-11.166-.889-21.688-2.387-31.287-4.415c-1.482-7.258-2.246-14.783-2.246-22.439c0-8.891.884-17.521 2.149-25.716c9.433-2.04 19.762-3.528 30.718-4.418c5.403-16.813 13.234-33.545 22.839-49.311c9.262-15.516 16.814-31.963 22.1-48.493c11.166.889 21.688 2.387 31.287 4.415c1.482 7.258 2.246 14.783 2.246 22.439c0 8.891-.884 17.521-2.149 25.716c-9.433 2.04-19.762 3.528-30.718 4.418c-5.403 16.813-13.234 33.545-22.839 49.311c-9.262 15.516-16.814 31.963-22.1 48.493c-11.166-.889-21.688-2.387-31.287-4.415c-1.482-7.258-2.246-14.783-2.246-22.439c0-8.891.884-17.521 2.149-25.716c9.433-2.04 19.762-3.528 30.718-4.418Zm32.321 24.134a347.8 347.8 0 0 0-7.785-12.803c8.217-2.64 15.847-5.561 22.731-8.715c4.307 6.918 8.19 14.2 11.57 21.751a381.151 381.151 0 0 0-26.516-.233m22.731 91.915c-6.884-3.154-14.514-6.075-22.731-8.715a347.8 347.8 0 0 0 7.785-12.803a381.151 381.151 0 0 0 26.516-.233c-3.38 7.551-7.263 14.833-11.57 21.751m-44.869 19.03c-4.307-6.918-8.19-14.2-11.57-21.751c8.217 2.64 15.847 5.561 22.731 8.715a347.8 347.8 0 0 0-7.785 12.803a381.151 381.151 0 0 0-26.516.233c3.38-7.551 7.263-14.833 11.57-21.751c6.884 3.154 14.514 6.075 22.731 8.715a347.8 347.8 0 0 0 7.785 12.803a381.151 381.151 0 0 0 26.516.233c-3.38 7.551-7.263 14.833-11.57 21.751c-6.884-3.154-14.514-6.075-22.731-8.715a347.8 347.8 0 0 0-7.785-12.803a381.151 381.151 0 0 0-26.516-.233c3.38-7.551 7.263-14.833 11.57-21.751c6.884 3.154 14.514 6.075 22.731 8.715a347.8 347.8 0 0 0 7.785 12.803a381.151 381.151 0 0 0 26.516.233c-3.38 7.551-7.263 14.833-11.57 21.751"></path><path fill="#00D8FF" d="M128.152 126.724c-7.653 0-13.86-6.208-13.86-13.86s6.207-13.861 13.86-13.861s13.86 6.208 13.86 13.861s-6.207 13.86-13.86 13.86"></path></svg>
